inDegrees=no
num_controls=7
num_derivatives=13
num_iterations=105
num_multipliers=7
num_parameters=0
num_slacks=7
num_states=26
objective=0.453891
objective_accelerations=0.046963
objective_balance=0.000912
objective_effort=0.037179
objective_height=0.362847
objective_ligament=0.005991
solver_duration=1187.024208
status=Solve_Succeeded
success=true
DataType=double
version=3
OpenSimVersion=4.5
endheader
time	/jointset/ground_pelvis/pelvis_tilt/value	/jointset/ground_pelvis/pelvis_tx/value	/jointset/ground_pelvis/pelvis_ty/value	/jointset/hip_r/hip_flexion_r/value	/jointset/hip_r/hip_adduction_r/value	/jointset/hip_r/hip_rotation_r/value	/jointset/back/lumbar_extension/value	/jointset/patellofemoral_r/patellar_flexion_r/value	/jointset/knee_r/knee_flexion_r/value	/jointset/knee_r/knee_adduction_r/value	/jointset/knee_r/knee_rotation_r/value	/jointset/ankle_r/ankle_angle_r/value	/jointset/subtalar_r/subtalar_angle_r/value	/jointset/ground_pelvis/pelvis_tilt/speed	/jointset/ground_pelvis/pelvis_tx/speed	/jointset/ground_pelvis/pelvis_ty/speed	/jointset/hip_r/hip_flexion_r/speed	/jointset/hip_r/hip_adduction_r/speed	/jointset/hip_r/hip_rotation_r/speed	/jointset/back/lumbar_extension/speed	/jointset/patellofemoral_r/patellar_flexion_r/speed	/jointset/knee_r/knee_flexion_r/speed	/jointset/knee_r/knee_adduction_r/speed	/jointset/knee_r/knee_rotation_r/speed	/jointset/ankle_r/ankle_angle_r/speed	/jointset/subtalar_r/subtalar_angle_r/speed	/forceset/tau_hip_flexion_r	/forceset/tau_hip_adduction_r	/forceset/tau_hip_rotation_r	/forceset/tau_knee_flexion_r	/forceset/tau_ankle_angle_r	/forceset/tau_subtalar_angle_r	/forceset/tau_lumbar_extension	lambda_cid13_p0	lambda_cid14_p0	lambda_cid14_p1	lambda_cid14_p2	lambda_cid14_p3	lambda_cid14_p4	lambda_cid14_p5	/jointset/ground_pelvis/pelvis_tilt/accel	/jointset/ground_pelvis/pelvis_tx/accel	/jointset/ground_pelvis/pelvis_ty/accel	/jointset/hip_r/hip_flexion_r/accel	/jointset/hip_r/hip_adduction_r/accel	/jointset/hip_r/hip_rotation_r/accel	/jointset/back/lumbar_extension/accel	/jointset/patellofemoral_r/patellar_flexion_r/accel	/jointset/knee_r/knee_flexion_r/accel	/jointset/knee_r/knee_adduction_r/accel	/jointset/knee_r/knee_rotation_r/accel	/jointset/ankle_r/ankle_angle_r/accel	/jointset/subtalar_r/subtalar_angle_r/accel	gamma_cid13_p0	gamma_cid14_p0	gamma_cid14_p1	gamma_cid14_p2	gamma_cid14_p3	gamma_cid14_p4	gamma_cid14_p5
1.5	-0.07255172777207135	0.03550531039245226	0.8192209215113795	0.7920936656981045	-0.236006005023855	-0.09763873944727677	-0.6250680816707004	0.9392999924937282	0.9392999924937209	0.0004980675460221502	0.1744996366660655	0.3039230854507504	0.1214972037147666	0.4382625174389952	0.2163336406236026	0.4969328182772584	-1.962080657361387	0.04317085449275844	-0.3720210881873057	0.802569668985498	-1.962227624761003	-1.962227624760991	0.236696731877307	0.0002009754507125702	-0.5224658934114613	-0.1256002434417141	-0.1528617523662947	0.00123336245289675	0.02583472270733677	-0.3123823652852474	0.01655041668646456	-0.008605093374800822	0.2092421325796966	-8.976109156152619	-37.30448810624414	-9.326097741852506	0.8318186097502264	-3.13727888862201	-632.3936407761253	61.78645407052178	0.1144077988738894	0.5610179329405638	-0.478533908284951	-1.003765859831818	-0.03061497948018684	-0.04273176081604796	1.80329796080195	-1.38403675276354	-1.384036752763526	0.8295410920549254	-0.05158881528070849	-0.6323188793006995	-0.1868024294962178	7.760599868711127e-08	-8.637429767180917e-08	-2.0765916354672e-06	-2.638287616615519e-07	2.563920863017797e-07	1.534504537163953e-07	-1.371199779095112e-06
1.51	-0.06816371960307628	0.03769645569368914	0.8241652870478599	0.7724248257906172	-0.2355763081903912	-0.1013635499058598	-0.6169536605299836	0.9196109389547921	0.9196109389547937	0.002905103916196939	0.1745012613184005	0.2986674745995344	0.1202314872657578	0.4392784080034206	0.2218676090852506	0.4918330499727094	-1.971424356525894	0.04275122889407124	-0.3729442510822132	0.8201987275909399	-1.975302479346566	-1.975302479346563	0.2446873259087609	0.0001319505687593885	-0.5285736682829927	-0.1275313441026565	-0.1458969433468267	-0.0003577218891424442	0.02555956323063203	-0.3082233323042205	0.01812924851106052	-0.009146396949998619	0.2027312459097722	-10.02366031690443	-36.51632078508812	-9.291971675736113	0.6765020372585155	-3.20966382561619	-627.5618774031709	61.61559257756471	0.0860554397094847	0.5454686378187977	-0.5417629391672151	-0.86024712445199	-0.05045395197450409	-0.1175263667450235	1.725335075339577	-1.22712623819204	-1.22712623819342	0.7800581468884952	0.01645669462236373	-0.5875619881947705	-0.1948981256740563	4.941560271760137e-08	-1.17114384584943e-07	-2.015328469029362e-06	-5.288632513506242e-07	2.650952917250946e-07	1.221637767300625e-07	-1.29088244231766e-06
1.52	-0.06376737737753743	0.03994211714655089	0.8290554419717691	0.7526704338555482	-0.2351513711332913	-0.1050976755559797	-0.6086664237502274	0.8997995535846531	0.899799553584662	0.005391294144331757	0.1745023989257674	0.2933532749601802	0.118946732961884	0.4399293287471452	0.2272368709485764	0.4860906957630569	-1.97919106287808	0.04221889921891978	-0.3738841264937954	0.8371327967933488	-1.986693991001704	-1.986693991001711	0.2525275034681278	0.0001035664578059238	-0.5341836510391412	-0.1294078144148315	-0.1389321343273653	-0.001948806231180473	0.02528440375391545	-0.3040642993231956	0.01970808033565714	-0.009687700525194118	0.1962203592398421	-11.07486216191758	-35.72962563075599	-9.256457412654868	0.5190850336431881	-3.286401400935418	-622.7522437106272	61.46024725872584	0.04141383473369947	0.5280766132761596	-0.6070510893056587	-0.6883672973677206	-0.05315579477303849	-0.04607426415097122	1.664300080195326	-1.047368166678567	-1.047368166678578	0.7994577976375393	-0.04346066108076009	-0.5327604562241386	-0.1758763597427555	3.439078887998822e-08	-1.381021695054196e-07	-2.024669159849755e-06	-7.082052689611533e-07	2.754512798833503e-07	1.045751973978991e-07	-1.253269903293179e-06
1.53	-0.05936645627246582	0.04224054273134251	0.8338850159474154	0.7328464589252546	-0.2347322122385152	-0.1088414789192267	-0.6002135751339691	0.8798827105689888	0.8798827105689918	0.007954865781779454	0.1745034908511662	0.2879854526903468	0.1176436515629455	0.440184873670446	0.2324094465744431	0.4797222866048019	-1.985319480204879	0.04159926076073311	-0.3748655176365316	0.8532929696135894	-1.996384165852434	-1.996384165852409	0.2601656871429094	0.0001104966923306963	-0.5393000134659021	-0.1311931234860683	-0.1317694364326969	-0.003585728298787221	0.02493722773496668	-0.3001607471197775	0.02141158061488207	-0.01028971945125507	0.1895167666124351	-12.1256340412743	-34.92090827724608	-9.249288324209504	0.3728481480647494	-3.302171350669646	-618.0956609233488	61.29381792590042	0.007101193669429499	0.5060869315208096	-0.666987760010905	-0.5324362018911716	-0.06868324190138617	-0.1224615755880513	1.570282356196149	-0.8862817624052238	-0.8862817624005498	0.7425164017066561	0.02190575298445014	-0.4888975245819307	-0.1779943623561406	3.335440605751521e-08	-1.48728133558698e-07	-2.109026449007018e-06	-7.96499034988231e-07	2.875633496974805e-07	1.015408468232906e-07	-1.261031211881229e-06
1.54	-0.05496508444365029	0.04458954185124858	0.8386478554452941	0.7129697283713833	-0.2343197128024288	-0.1125947542011552	-0.5916034434948567	0.8598776778811905	0.859877677881187	0.01059412280584022	0.1745044792563603	0.28256890211851	0.1163230898369867	0.4400194734953885	0.2373515779714669	0.4727438002095185	-1.989742187593883	0.04088700748014795	-0.375778510229391	0.8685894013641362	-2.004331925428567	-2.004331925428511	0.267664580790017	8.286241746984172e-05	-0.5439293114398578	-0.1329038798189849	-0.1246067385380347	-0.005222650366394508	0.02459005171601111	-0.2962571949163607	0.02311508089410718	-0.01089173837731655	0.1828131739850231	-13.17244034444588	-34.11402699911073	-9.241487085909649	0.2254220522839935	-3.317889128156463	-613.464487665031	61.13736736603158	-0.04277518493795014	0.4819877675076191	-0.7290665367113328	-0.3472253098083853	-0.0716787592527364	-0.03239455417560138	1.491551866256591	-0.6988851117592818	-0.6988851117592818	0.7715997921027523	-0.05037356295788488	-0.4353475656630713	-0.160965812078697	3.094573925994876e-08	-1.585392714411106e-07	-2.171331579317285e-06	-8.868834621433112e-07	2.965030178611298e-07	9.912426581904661e-08	-1.25071720222342e-06
